<mxfile host="65bd71144e" pages="4">
    <diagram name="industrial-use-case" id="-5eUznXh3xwyPbRh5421">
        <mxGraphModel dx="1122" dy="852" grid="1" gridSize="10" guides="1" tooltips="1" connect="1" arrows="1" fold="1" page="1" pageScale="1" pageWidth="1100" pageHeight="850" math="0" shadow="0">
            <root>
                <mxCell id="0"/>
                <mxCell id="1" parent="0"/>
                <mxCell id="XJKZSx9Rj0ejB5qCwQDt-14" style="edgeStyle=none;shape=connector;rounded=1;orthogonalLoop=1;jettySize=auto;html=1;entryX=0.5;entryY=0;entryDx=0;entryDy=0;labelBackgroundColor=default;strokeColor=#182E3E;fontFamily=Helvetica;fontSize=11;fontColor=#1A1A1A;startArrow=classic;startFill=1;endArrow=classic;" parent="1" source="XJKZSx9Rj0ejB5qCwQDt-11" target="XJKZSx9Rj0ejB5qCwQDt-12" edge="1">
                    <mxGeometry relative="1" as="geometry"/>
                </mxCell>
                <mxCell id="XJKZSx9Rj0ejB5qCwQDt-11" value="Team of Experts" style="rounded=1;whiteSpace=wrap;html=1;fontFamily=Helvetica;fontSize=11;fillColor=#eeeeee;strokeColor=#36393d;verticalAlign=top;" parent="1" vertex="1">
                    <mxGeometry x="525" y="305" width="280" height="240" as="geometry"/>
                </mxCell>
                <mxCell id="XJKZSx9Rj0ejB5qCwQDt-8" style="edgeStyle=orthogonalEdgeStyle;orthogonalLoop=1;jettySize=auto;html=1;entryX=0;entryY=0.5;entryDx=0;entryDy=0;strokeColor=#182E3E;fontColor=#1A1A1A;startArrow=classic;startFill=1;" parent="1" source="XJKZSx9Rj0ejB5qCwQDt-3" target="XJKZSx9Rj0ejB5qCwQDt-5" edge="1">
                    <mxGeometry relative="1" as="geometry"/>
                </mxCell>
                <mxCell id="XJKZSx9Rj0ejB5qCwQDt-9" style="orthogonalLoop=1;jettySize=auto;html=1;exitX=0.5;exitY=1;exitDx=0;exitDy=0;strokeColor=#182E3E;fontColor=#1A1A1A;startArrow=classic;startFill=1;" parent="1" source="XJKZSx9Rj0ejB5qCwQDt-3" target="XJKZSx9Rj0ejB5qCwQDt-6" edge="1">
                    <mxGeometry relative="1" as="geometry"/>
                </mxCell>
                <mxCell id="XJKZSx9Rj0ejB5qCwQDt-3" value="Process Engineering SSM" style="ellipse;whiteSpace=wrap;html=1;aspect=fixed;strokeColor=#36393d;fillColor=#cdeb8b;" parent="1" vertex="1">
                    <mxGeometry x="550" y="325" width="80" height="80" as="geometry"/>
                </mxCell>
                <mxCell id="XJKZSx9Rj0ejB5qCwQDt-10" style="orthogonalLoop=1;jettySize=auto;html=1;entryX=1;entryY=0;entryDx=0;entryDy=0;strokeColor=#182E3E;fontColor=#1A1A1A;startArrow=classic;startFill=1;exitX=0.5;exitY=1;exitDx=0;exitDy=0;" parent="1" source="XJKZSx9Rj0ejB5qCwQDt-5" target="XJKZSx9Rj0ejB5qCwQDt-6" edge="1">
                    <mxGeometry relative="1" as="geometry"/>
                </mxCell>
                <mxCell id="XJKZSx9Rj0ejB5qCwQDt-5" value="Quality Assurance SSM" style="ellipse;whiteSpace=wrap;html=1;aspect=fixed;strokeColor=#36393d;fillColor=#cdeb8b;" parent="1" vertex="1">
                    <mxGeometry x="705" y="325" width="80" height="80" as="geometry"/>
                </mxCell>
                <mxCell id="XJKZSx9Rj0ejB5qCwQDt-6" value="Maintenance SSM" style="ellipse;whiteSpace=wrap;html=1;aspect=fixed;strokeColor=#36393d;fillColor=#cdeb8b;" parent="1" vertex="1">
                    <mxGeometry x="625" y="445" width="80" height="80" as="geometry"/>
                </mxCell>
                <mxCell id="XJKZSx9Rj0ejB5qCwQDt-16" style="edgeStyle=none;shape=connector;rounded=1;orthogonalLoop=1;jettySize=auto;html=1;entryX=0;entryY=0.5;entryDx=0;entryDy=0;labelBackgroundColor=default;strokeColor=#182E3E;fontFamily=Helvetica;fontSize=11;fontColor=#1A1A1A;startArrow=classic;startFill=1;endArrow=classic;" parent="1" source="XJKZSx9Rj0ejB5qCwQDt-7" target="XJKZSx9Rj0ejB5qCwQDt-11" edge="1">
                    <mxGeometry relative="1" as="geometry"/>
                </mxCell>
                <mxCell id="XJKZSx9Rj0ejB5qCwQDt-7" value="Strategic Planner&lt;br&gt;SSM" style="ellipse;whiteSpace=wrap;html=1;aspect=fixed;strokeColor=#36393d;fillColor=#eeeeee;" parent="1" vertex="1">
                    <mxGeometry x="385" y="375" width="100" height="100" as="geometry"/>
                </mxCell>
                <mxCell id="XJKZSx9Rj0ejB5qCwQDt-12" value="&lt;b&gt;Sensors&lt;br&gt;&lt;/b&gt;&lt;br&gt;Temperature, Pressure, Gas, Particulates" style="rounded=0;whiteSpace=wrap;html=1;fontFamily=Helvetica;fontSize=11;fillColor=#eeeeee;strokeColor=#36393d;" parent="1" vertex="1">
                    <mxGeometry x="525" y="585" width="280" height="60" as="geometry"/>
                </mxCell>
                <mxCell id="XJKZSx9Rj0ejB5qCwQDt-15" style="edgeStyle=none;shape=connector;rounded=1;orthogonalLoop=1;jettySize=auto;html=1;entryX=0.5;entryY=0;entryDx=0;entryDy=0;labelBackgroundColor=default;strokeColor=#182E3E;fontFamily=Helvetica;fontSize=11;fontColor=#1A1A1A;startArrow=classic;startFill=1;endArrow=classic;" parent="1" source="XJKZSx9Rj0ejB5qCwQDt-13" target="XJKZSx9Rj0ejB5qCwQDt-11" edge="1">
                    <mxGeometry relative="1" as="geometry"/>
                </mxCell>
                <mxCell id="XJKZSx9Rj0ejB5qCwQDt-13" value="&lt;b&gt;Actuators&lt;br&gt;&lt;/b&gt;&lt;br&gt;Valves, Robotic Arms, Heaters, Pumps" style="rounded=0;whiteSpace=wrap;html=1;fontFamily=Helvetica;fontSize=11;fillColor=#eeeeee;strokeColor=#36393d;" parent="1" vertex="1">
                    <mxGeometry x="525" y="205" width="280" height="60" as="geometry"/>
                </mxCell>
                <mxCell id="XJKZSx9Rj0ejB5qCwQDt-18" style="edgeStyle=none;shape=connector;rounded=1;orthogonalLoop=1;jettySize=auto;html=1;entryX=0;entryY=0.5;entryDx=0;entryDy=0;labelBackgroundColor=default;strokeColor=#182E3E;fontFamily=Helvetica;fontSize=11;fontColor=#1A1A1A;startArrow=classic;startFill=1;endArrow=classic;" parent="1" source="XJKZSx9Rj0ejB5qCwQDt-17" target="XJKZSx9Rj0ejB5qCwQDt-7" edge="1">
                    <mxGeometry relative="1" as="geometry"/>
                </mxCell>
                <mxCell id="XJKZSx9Rj0ejB5qCwQDt-17" value="Semiconductor&lt;br&gt;Process&lt;br&gt;Engineer" style="shape=umlActor;verticalLabelPosition=bottom;verticalAlign=top;html=1;outlineConnect=0;strokeColor=#36393d;fontFamily=Helvetica;fontSize=11;fillColor=#eeeeee;" parent="1" vertex="1">
                    <mxGeometry x="295" y="395" width="30" height="60" as="geometry"/>
                </mxCell>
                <mxCell id="0Sv4GaxlDXKAEfBw0d6Z-1" value="OpenSSM Industrial Use Case&lt;br&gt;&lt;font style=&quot;font-size: 14px;&quot;&gt;As team of experts in a semiconductor manufacturing use case&lt;/font&gt;" style="rounded=0;whiteSpace=wrap;html=1;fontFamily=Helvetica;fontSize=20;shadow=1;glass=1;" parent="1" vertex="1">
                    <mxGeometry x="80" y="250" width="410" height="60" as="geometry"/>
                </mxCell>
            </root>
        </mxGraphModel>
    </diagram>
    <diagram id="MSQyXtnzZqKQ1t71p9nx" name="key-components">
        <mxGraphModel dx="1197" dy="612" grid="1" gridSize="10" guides="1" tooltips="1" connect="1" arrows="1" fold="1" page="1" pageScale="1" pageWidth="1100" pageHeight="850" math="0" shadow="0">
            <root>
                <mxCell id="0"/>
                <mxCell id="1" parent="0"/>
                <mxCell id="Mf-JLtX56g48apQCMdDD-1" value="SSM" style="rounded=1;whiteSpace=wrap;html=1;strokeColor=#36393d;fontFamily=Helvetica;fontSize=16;fillColor=#cdeb8b;verticalAlign=top;" parent="1" vertex="1">
                    <mxGeometry x="355" y="275" width="500" height="300" as="geometry"/>
                </mxCell>
                <mxCell id="H5P9r5N9csEbkpURsWGX-11" style="edgeStyle=none;shape=connector;rounded=1;orthogonalLoop=1;jettySize=auto;html=1;entryX=0;entryY=0.5;entryDx=0;entryDy=0;labelBackgroundColor=default;strokeColor=#182E3E;fontFamily=Helvetica;fontSize=11;fontColor=#1A1A1A;startArrow=classic;startFill=1;endArrow=classic;" parent="1" source="H5P9r5N9csEbkpURsWGX-1" target="H5P9r5N9csEbkpURsWGX-2" edge="1">
                    <mxGeometry relative="1" as="geometry"/>
                </mxCell>
                <mxCell id="H5P9r5N9csEbkpURsWGX-1" value="SLM&lt;br&gt;(Small Language Model)" style="ellipse;whiteSpace=wrap;html=1;aspect=fixed;strokeColor=#36393d;fontFamily=Helvetica;fontSize=11;fillColor=#ffcc99;" parent="1" vertex="1">
                    <mxGeometry x="375" y="385" width="80" height="80" as="geometry"/>
                </mxCell>
                <mxCell id="H5P9r5N9csEbkpURsWGX-12" style="edgeStyle=none;shape=connector;rounded=1;orthogonalLoop=1;jettySize=auto;html=1;entryX=0;entryY=0.5;entryDx=0;entryDy=0;labelBackgroundColor=default;strokeColor=#182E3E;fontFamily=Helvetica;fontSize=11;fontColor=#1A1A1A;startArrow=classic;startFill=1;endArrow=classic;" parent="1" source="H5P9r5N9csEbkpURsWGX-2" target="H5P9r5N9csEbkpURsWGX-3" edge="1">
                    <mxGeometry relative="1" as="geometry"/>
                </mxCell>
                <mxCell id="H5P9r5N9csEbkpURsWGX-13" style="edgeStyle=none;shape=connector;rounded=1;orthogonalLoop=1;jettySize=auto;html=1;entryX=0;entryY=0.5;entryDx=0;entryDy=0;labelBackgroundColor=default;strokeColor=#182E3E;fontFamily=Helvetica;fontSize=11;fontColor=#1A1A1A;startArrow=classic;startFill=1;endArrow=classic;" parent="1" source="H5P9r5N9csEbkpURsWGX-2" target="H5P9r5N9csEbkpURsWGX-6" edge="1">
                    <mxGeometry relative="1" as="geometry"/>
                </mxCell>
                <mxCell id="H5P9r5N9csEbkpURsWGX-14" style="edgeStyle=none;shape=connector;rounded=1;orthogonalLoop=1;jettySize=auto;html=1;entryX=0;entryY=0.5;entryDx=0;entryDy=0;labelBackgroundColor=default;strokeColor=#182E3E;fontFamily=Helvetica;fontSize=11;fontColor=#1A1A1A;startArrow=classic;startFill=1;endArrow=classic;" parent="1" source="H5P9r5N9csEbkpURsWGX-2" target="H5P9r5N9csEbkpURsWGX-7" edge="1">
                    <mxGeometry relative="1" as="geometry"/>
                </mxCell>
                <mxCell id="H5P9r5N9csEbkpURsWGX-15" style="edgeStyle=none;shape=connector;rounded=1;orthogonalLoop=1;jettySize=auto;html=1;entryX=0;entryY=0.5;entryDx=0;entryDy=0;labelBackgroundColor=default;strokeColor=#182E3E;fontFamily=Helvetica;fontSize=11;fontColor=#1A1A1A;startArrow=classic;startFill=1;endArrow=classic;" parent="1" source="H5P9r5N9csEbkpURsWGX-2" target="H5P9r5N9csEbkpURsWGX-8" edge="1">
                    <mxGeometry relative="1" as="geometry"/>
                </mxCell>
                <mxCell id="H5P9r5N9csEbkpURsWGX-16" style="edgeStyle=none;shape=connector;rounded=1;orthogonalLoop=1;jettySize=auto;html=1;entryX=0;entryY=0.5;entryDx=0;entryDy=0;labelBackgroundColor=default;strokeColor=#182E3E;fontFamily=Helvetica;fontSize=11;fontColor=#1A1A1A;startArrow=classic;startFill=1;endArrow=classic;" parent="1" source="H5P9r5N9csEbkpURsWGX-2" target="H5P9r5N9csEbkpURsWGX-9" edge="1">
                    <mxGeometry relative="1" as="geometry"/>
                </mxCell>
                <mxCell id="H5P9r5N9csEbkpURsWGX-17" style="edgeStyle=none;shape=connector;rounded=1;orthogonalLoop=1;jettySize=auto;html=1;entryX=0;entryY=0.5;entryDx=0;entryDy=0;labelBackgroundColor=default;strokeColor=#182E3E;fontFamily=Helvetica;fontSize=11;fontColor=#1A1A1A;startArrow=classic;startFill=1;endArrow=classic;" parent="1" source="H5P9r5N9csEbkpURsWGX-2" target="H5P9r5N9csEbkpURsWGX-10" edge="1">
                    <mxGeometry relative="1" as="geometry"/>
                </mxCell>
                <mxCell id="H5P9r5N9csEbkpURsWGX-2" value="Adapter&lt;br&gt;(e.g., LlamaIndex)" style="shape=step;perimeter=stepPerimeter;whiteSpace=wrap;html=1;fixedSize=1;strokeColor=#36393d;fontFamily=Helvetica;fontSize=11;fillColor=#ffcc99;" parent="1" vertex="1">
                    <mxGeometry x="505" y="385" width="120" height="80" as="geometry"/>
                </mxCell>
                <mxCell id="H5P9r5N9csEbkpURsWGX-3" value="Text, PDFs" style="rounded=0;whiteSpace=wrap;html=1;strokeColor=#36393d;fontFamily=Helvetica;fontSize=11;fillColor=#ffcc99;" parent="1" vertex="1">
                    <mxGeometry x="687.5" y="315" width="135" height="30" as="geometry"/>
                </mxCell>
                <mxCell id="H5P9r5N9csEbkpURsWGX-4" value="Domain-Knowledge Backends" style="text;html=1;strokeColor=none;fillColor=none;align=center;verticalAlign=middle;whiteSpace=wrap;rounded=0;fontSize=11;fontFamily=Helvetica;fontColor=#1A1A1A;" parent="1" vertex="1">
                    <mxGeometry x="675" y="285" width="160" height="30" as="geometry"/>
                </mxCell>
                <mxCell id="H5P9r5N9csEbkpURsWGX-6" value="Google Drive" style="rounded=0;whiteSpace=wrap;html=1;strokeColor=#36393d;fontFamily=Helvetica;fontSize=11;fillColor=#ffcc99;" parent="1" vertex="1">
                    <mxGeometry x="687.5" y="355" width="135" height="30" as="geometry"/>
                </mxCell>
                <mxCell id="H5P9r5N9csEbkpURsWGX-7" value="Spreadsheets" style="rounded=0;whiteSpace=wrap;html=1;strokeColor=#36393d;fontFamily=Helvetica;fontSize=11;fillColor=#ffcc99;" parent="1" vertex="1">
                    <mxGeometry x="687.5" y="395" width="135" height="30" as="geometry"/>
                </mxCell>
                <mxCell id="H5P9r5N9csEbkpURsWGX-8" value="Code" style="rounded=0;whiteSpace=wrap;html=1;strokeColor=#36393d;fontFamily=Helvetica;fontSize=11;fillColor=#ffcc99;" parent="1" vertex="1">
                    <mxGeometry x="687.5" y="435" width="135" height="30" as="geometry"/>
                </mxCell>
                <mxCell id="H5P9r5N9csEbkpURsWGX-9" value="Fuzzy Logic" style="rounded=0;whiteSpace=wrap;html=1;strokeColor=#36393d;fontFamily=Helvetica;fontSize=11;fillColor=#ffcc99;" parent="1" vertex="1">
                    <mxGeometry x="687.5" y="475" width="135" height="30" as="geometry"/>
                </mxCell>
                <mxCell id="H5P9r5N9csEbkpURsWGX-10" value="Models" style="rounded=0;whiteSpace=wrap;html=1;strokeColor=#36393d;fontFamily=Helvetica;fontSize=11;fillColor=#ffcc99;" parent="1" vertex="1">
                    <mxGeometry x="687.5" y="515" width="135" height="30" as="geometry"/>
                </mxCell>
                <mxCell id="cU7Y9FVFM4Y2OoRwl5s1-3" style="edgeStyle=none;shape=connector;rounded=1;orthogonalLoop=1;jettySize=auto;html=1;entryX=0;entryY=0.5;entryDx=0;entryDy=0;labelBackgroundColor=default;strokeColor=#182E3E;fontFamily=Helvetica;fontSize=11;fontColor=#1A1A1A;startArrow=classic;startFill=1;endArrow=classic;" parent="1" source="cU7Y9FVFM4Y2OoRwl5s1-1" target="Mf-JLtX56g48apQCMdDD-1" edge="1">
                    <mxGeometry relative="1" as="geometry"/>
                </mxCell>
                <mxCell id="cU7Y9FVFM4Y2OoRwl5s1-1" value="User" style="shape=umlActor;verticalLabelPosition=bottom;verticalAlign=top;html=1;outlineConnect=0;fontFamily=Helvetica;fontSize=11;" parent="1" vertex="1">
                    <mxGeometry x="245" y="395" width="30" height="60" as="geometry"/>
                </mxCell>
                <mxCell id="pQyb9hLRcrCQ7zoxUbhm-1" value="OpenSSM Key Components&lt;br&gt;&lt;font style=&quot;font-size: 14px;&quot;&gt;SLM → Adapter → Backends&lt;/font&gt;" style="rounded=0;whiteSpace=wrap;html=1;fontFamily=Helvetica;fontSize=20;shadow=1;glass=1;" parent="1" vertex="1">
                    <mxGeometry x="400" y="620" width="410" height="60" as="geometry"/>
                </mxCell>
            </root>
        </mxGraphModel>
    </diagram>
    <diagram id="WXQKz-aBNWhumgjnGhRv" name="composability">
        <mxGraphModel dx="1197" dy="612" grid="1" gridSize="10" guides="1" tooltips="1" connect="1" arrows="1" fold="1" page="1" pageScale="1" pageWidth="1100" pageHeight="850" math="0" shadow="0">
            <root>
                <mxCell id="0"/>
                <mxCell id="1" parent="0"/>
                <mxCell id="T56QmzQmo5wIUWg2_XxA-6" style="edgeStyle=none;shape=connector;rounded=1;orthogonalLoop=1;jettySize=auto;html=1;entryX=0;entryY=0.5;entryDx=0;entryDy=0;labelBackgroundColor=default;strokeColor=#182E3E;fontFamily=Helvetica;fontSize=11;fontColor=#1A1A1A;startArrow=classic;startFill=1;endArrow=classic;" parent="1" source="T56QmzQmo5wIUWg2_XxA-1" target="T56QmzQmo5wIUWg2_XxA-2" edge="1">
                    <mxGeometry relative="1" as="geometry"/>
                </mxCell>
                <mxCell id="T56QmzQmo5wIUWg2_XxA-7" style="edgeStyle=none;shape=connector;rounded=1;orthogonalLoop=1;jettySize=auto;html=1;entryX=0;entryY=0.5;entryDx=0;entryDy=0;labelBackgroundColor=default;strokeColor=#182E3E;fontFamily=Helvetica;fontSize=11;fontColor=#1A1A1A;startArrow=classic;startFill=1;endArrow=classic;" parent="1" source="T56QmzQmo5wIUWg2_XxA-1" target="T56QmzQmo5wIUWg2_XxA-4" edge="1">
                    <mxGeometry relative="1" as="geometry"/>
                </mxCell>
                <mxCell id="T56QmzQmo5wIUWg2_XxA-8" style="edgeStyle=none;shape=connector;rounded=1;orthogonalLoop=1;jettySize=auto;html=1;entryX=0;entryY=0.5;entryDx=0;entryDy=0;labelBackgroundColor=default;strokeColor=#182E3E;fontFamily=Helvetica;fontSize=11;fontColor=#1A1A1A;startArrow=classic;startFill=1;endArrow=classic;" parent="1" source="T56QmzQmo5wIUWg2_XxA-1" target="T56QmzQmo5wIUWg2_XxA-5" edge="1">
                    <mxGeometry relative="1" as="geometry"/>
                </mxCell>
                <mxCell id="T56QmzQmo5wIUWg2_XxA-9" style="edgeStyle=none;shape=connector;rounded=1;orthogonalLoop=1;jettySize=auto;html=1;entryX=0;entryY=0.5;entryDx=0;entryDy=0;labelBackgroundColor=default;strokeColor=#182E3E;fontFamily=Helvetica;fontSize=11;fontColor=#1A1A1A;startArrow=classic;startFill=1;endArrow=classic;" parent="1" source="T56QmzQmo5wIUWg2_XxA-1" target="T56QmzQmo5wIUWg2_XxA-3" edge="1">
                    <mxGeometry relative="1" as="geometry"/>
                </mxCell>
                <mxCell id="T56QmzQmo5wIUWg2_XxA-1" value="Semicond&lt;br&gt;Tool &lt;br&gt;Expert&lt;br&gt;SSM" style="ellipse;whiteSpace=wrap;html=1;aspect=fixed;strokeColor=#36393d;fillColor=#cdeb8b;" parent="1" vertex="1">
                    <mxGeometry x="448" y="380" width="80" height="80" as="geometry"/>
                </mxCell>
                <mxCell id="T56QmzQmo5wIUWg2_XxA-2" value="ALD&lt;br&gt;Tool&lt;br&gt;&amp;nbsp;Expert&lt;br&gt;SSM" style="ellipse;whiteSpace=wrap;html=1;aspect=fixed;strokeColor=#36393d;fillColor=#cdeb8b;" parent="1" vertex="1">
                    <mxGeometry x="598" y="280" width="80" height="80" as="geometry"/>
                </mxCell>
                <mxCell id="T56QmzQmo5wIUWg2_XxA-3" value="CVD&lt;br&gt;Tool&lt;br&gt;&amp;nbsp;Expert&lt;br&gt;SSM" style="ellipse;whiteSpace=wrap;html=1;aspect=fixed;strokeColor=#36393d;fillColor=#cdeb8b;" parent="1" vertex="1">
                    <mxGeometry x="598" y="490" width="80" height="80" as="geometry"/>
                </mxCell>
                <mxCell id="T56QmzQmo5wIUWg2_XxA-4" value="Litho&lt;br&gt;Tool&lt;br&gt;&amp;nbsp;Expert&lt;br&gt;SSM" style="ellipse;whiteSpace=wrap;html=1;aspect=fixed;strokeColor=#36393d;fillColor=#cdeb8b;" parent="1" vertex="1">
                    <mxGeometry x="698" y="330" width="80" height="80" as="geometry"/>
                </mxCell>
                <mxCell id="T56QmzQmo5wIUWg2_XxA-5" value="RF Etcher&lt;br&gt;Tool&lt;br&gt;&amp;nbsp;Expert&lt;br&gt;SSM" style="ellipse;whiteSpace=wrap;html=1;aspect=fixed;strokeColor=#36393d;fillColor=#cdeb8b;" parent="1" vertex="1">
                    <mxGeometry x="698" y="435" width="80" height="80" as="geometry"/>
                </mxCell>
                <mxCell id="_PcQEO8d60qnSiy46h4H-2" style="edgeStyle=none;shape=connector;rounded=1;orthogonalLoop=1;jettySize=auto;html=1;entryX=0;entryY=0.5;entryDx=0;entryDy=0;labelBackgroundColor=default;strokeColor=#182E3E;fontFamily=Helvetica;fontSize=11;fontColor=#1A1A1A;startArrow=classic;startFill=1;endArrow=classic;" parent="1" source="_PcQEO8d60qnSiy46h4H-1" target="T56QmzQmo5wIUWg2_XxA-1" edge="1">
                    <mxGeometry relative="1" as="geometry"/>
                </mxCell>
                <mxCell id="_PcQEO8d60qnSiy46h4H-1" value="User" style="shape=umlActor;verticalLabelPosition=bottom;verticalAlign=top;html=1;outlineConnect=0;fontFamily=Helvetica;fontSize=11;" parent="1" vertex="1">
                    <mxGeometry x="323" y="390" width="30" height="60" as="geometry"/>
                </mxCell>
                <mxCell id="08VoG6ZB7hb07Z6NUy0W-1" value="OpenSSM Composability&lt;br&gt;&lt;font style=&quot;font-size: 14px;&quot;&gt;Easily combine domain knowledge with SSMs&lt;/font&gt;" style="rounded=0;whiteSpace=wrap;html=1;fontFamily=Helvetica;fontSize=20;shadow=1;glass=1;" parent="1" vertex="1">
                    <mxGeometry x="345" y="620" width="410" height="60" as="geometry"/>
                </mxCell>
            </root>
        </mxGraphModel>
    </diagram>
    <diagram id="ULFEi2hwU1WCmZeOF8yX" name="class-diagram">
        <mxGraphModel dx="1122" dy="852" grid="1" gridSize="10" guides="1" tooltips="1" connect="1" arrows="1" fold="1" page="1" pageScale="1" pageWidth="1100" pageHeight="850" math="0" shadow="0">
            <root>
                <mxCell id="0"/>
                <mxCell id="1" parent="0"/>
                <mxCell id="BKyhv98KqYZoipyMG5w0-1" style="shape=connector;rounded=1;orthogonalLoop=1;jettySize=auto;html=1;entryX=0;entryY=0.5;entryDx=0;entryDy=0;labelBackgroundColor=default;strokeColor=#182E3E;fontFamily=Helvetica;fontSize=11;fontColor=#1A1A1A;startArrow=none;startFill=0;endArrow=classic;exitX=1;exitY=0.5;exitDx=0;exitDy=0;edgeStyle=orthogonalEdgeStyle;" edge="1" parent="1" source="BKyhv98KqYZoipyMG5w0-7" target="BKyhv98KqYZoipyMG5w0-10">
                    <mxGeometry relative="1" as="geometry"/>
                </mxCell>
                <mxCell id="BKyhv98KqYZoipyMG5w0-2" value="has" style="edgeLabel;html=1;align=center;verticalAlign=middle;resizable=0;points=[];fontSize=11;fontFamily=Helvetica;fontColor=#1A1A1A;" vertex="1" connectable="0" parent="BKyhv98KqYZoipyMG5w0-1">
                    <mxGeometry x="0.1892" y="3" relative="1" as="geometry">
                        <mxPoint as="offset"/>
                    </mxGeometry>
                </mxCell>
                <mxCell id="BKyhv98KqYZoipyMG5w0-3" value="uses" style="edgeStyle=orthogonalEdgeStyle;shape=connector;rounded=1;orthogonalLoop=1;jettySize=auto;html=1;entryX=0.5;entryY=0;entryDx=0;entryDy=0;labelBackgroundColor=default;strokeColor=#182E3E;fontFamily=Helvetica;fontSize=11;fontColor=#1A1A1A;startArrow=none;startFill=0;endArrow=classic;" edge="1" parent="1" source="BKyhv98KqYZoipyMG5w0-4" target="BKyhv98KqYZoipyMG5w0-62">
                    <mxGeometry relative="1" as="geometry"/>
                </mxCell>
                <mxCell id="BKyhv98KqYZoipyMG5w0-4" value="AbstractSSM" style="swimlane;fontStyle=1;align=center;verticalAlign=top;childLayout=stackLayout;horizontal=1;startSize=26;horizontalStack=0;resizeParent=1;resizeParentMax=0;resizeLast=0;collapsible=1;marginBottom=0;whiteSpace=wrap;html=1;fontFamily=Helvetica;fontSize=11;fillColor=#eeeeee;strokeColor=#36393d;" vertex="1" parent="1">
                    <mxGeometry x="80" y="360" width="160" height="120" as="geometry"/>
                </mxCell>
                <mxCell id="BKyhv98KqYZoipyMG5w0-5" value="+ field: type" style="text;align=left;verticalAlign=top;spacingLeft=4;spacingRight=4;overflow=hidden;rotatable=0;points=[[0,0.5],[1,0.5]];portConstraint=eastwest;whiteSpace=wrap;html=1;fontSize=11;fontFamily=Helvetica;" vertex="1" parent="BKyhv98KqYZoipyMG5w0-4">
                    <mxGeometry y="26" width="160" height="26" as="geometry"/>
                </mxCell>
                <mxCell id="BKyhv98KqYZoipyMG5w0-6" value="" style="line;strokeWidth=1;align=left;verticalAlign=middle;spacingTop=-1;spacingLeft=3;spacingRight=3;rotatable=0;labelPosition=right;points=[];portConstraint=eastwest;fontFamily=Helvetica;fontSize=11;" vertex="1" parent="BKyhv98KqYZoipyMG5w0-4">
                    <mxGeometry y="52" width="160" height="8" as="geometry"/>
                </mxCell>
                <mxCell id="BKyhv98KqYZoipyMG5w0-7" value="get_slm()&lt;br&gt;get_adapter()&lt;br&gt;get_backends()" style="text;align=left;verticalAlign=top;spacingLeft=4;spacingRight=4;overflow=hidden;rotatable=0;points=[[0,0.5],[1,0.5]];portConstraint=eastwest;whiteSpace=wrap;html=1;fontSize=11;fontFamily=Helvetica;" vertex="1" parent="BKyhv98KqYZoipyMG5w0-4">
                    <mxGeometry y="60" width="160" height="60" as="geometry"/>
                </mxCell>
                <mxCell id="BKyhv98KqYZoipyMG5w0-8" value="has" style="shape=connector;rounded=1;orthogonalLoop=1;jettySize=auto;html=1;labelBackgroundColor=default;strokeColor=#182E3E;fontFamily=Helvetica;fontSize=11;fontColor=#1A1A1A;startArrow=none;startFill=0;endArrow=classic;entryX=0;entryY=0.5;entryDx=0;entryDy=0;exitX=1;exitY=0.5;exitDx=0;exitDy=0;edgeStyle=orthogonalEdgeStyle;" edge="1" parent="1" source="BKyhv98KqYZoipyMG5w0-10" target="BKyhv98KqYZoipyMG5w0-14">
                    <mxGeometry relative="1" as="geometry"/>
                </mxCell>
                <mxCell id="BKyhv98KqYZoipyMG5w0-9" value="AbstractSLM" style="swimlane;fontStyle=1;align=center;verticalAlign=top;childLayout=stackLayout;horizontal=1;startSize=26;horizontalStack=0;resizeParent=1;resizeParentMax=0;resizeLast=0;collapsible=1;marginBottom=0;whiteSpace=wrap;html=1;strokeColor=#36393d;fontFamily=Helvetica;fontSize=11;fillColor=#eeeeee;" vertex="1" parent="1">
                    <mxGeometry x="320" y="480" width="160" height="100" as="geometry"/>
                </mxCell>
                <mxCell id="BKyhv98KqYZoipyMG5w0-10" value="+ field: type" style="text;strokeColor=none;fillColor=none;align=left;verticalAlign=top;spacingLeft=4;spacingRight=4;overflow=hidden;rotatable=0;points=[[0,0.5],[1,0.5]];portConstraint=eastwest;whiteSpace=wrap;html=1;fontSize=11;fontFamily=Helvetica;fontColor=#1A1A1A;" vertex="1" parent="BKyhv98KqYZoipyMG5w0-9">
                    <mxGeometry y="26" width="160" height="26" as="geometry"/>
                </mxCell>
                <mxCell id="BKyhv98KqYZoipyMG5w0-11" value="" style="line;strokeWidth=1;fillColor=none;align=left;verticalAlign=middle;spacingTop=-1;spacingLeft=3;spacingRight=3;rotatable=0;labelPosition=right;points=[];portConstraint=eastwest;strokeColor=inherit;fontFamily=Helvetica;fontSize=11;fontColor=#1A1A1A;" vertex="1" parent="BKyhv98KqYZoipyMG5w0-9">
                    <mxGeometry y="52" width="160" height="8" as="geometry"/>
                </mxCell>
                <mxCell id="BKyhv98KqYZoipyMG5w0-12" value="get_adapter()&lt;br&gt;get_backends()" style="text;strokeColor=none;fillColor=none;align=left;verticalAlign=top;spacingLeft=4;spacingRight=4;overflow=hidden;rotatable=0;points=[[0,0.5],[1,0.5]];portConstraint=eastwest;whiteSpace=wrap;html=1;fontSize=11;fontFamily=Helvetica;fontColor=#1A1A1A;" vertex="1" parent="BKyhv98KqYZoipyMG5w0-9">
                    <mxGeometry y="60" width="160" height="40" as="geometry"/>
                </mxCell>
                <mxCell id="BKyhv98KqYZoipyMG5w0-13" value="AbstractAdapter" style="swimlane;fontStyle=1;align=center;verticalAlign=top;childLayout=stackLayout;horizontal=1;startSize=26;horizontalStack=0;resizeParent=1;resizeParentMax=0;resizeLast=0;collapsible=1;marginBottom=0;whiteSpace=wrap;html=1;strokeColor=#36393d;fontFamily=Helvetica;fontSize=11;fillColor=#eeeeee;" vertex="1" parent="1">
                    <mxGeometry x="600" y="560" width="160" height="86" as="geometry"/>
                </mxCell>
                <mxCell id="BKyhv98KqYZoipyMG5w0-14" value="+ field: type" style="text;strokeColor=none;fillColor=none;align=left;verticalAlign=top;spacingLeft=4;spacingRight=4;overflow=hidden;rotatable=0;points=[[0,0.5],[1,0.5]];portConstraint=eastwest;whiteSpace=wrap;html=1;fontSize=11;fontFamily=Helvetica;fontColor=#1A1A1A;" vertex="1" parent="BKyhv98KqYZoipyMG5w0-13">
                    <mxGeometry y="26" width="160" height="26" as="geometry"/>
                </mxCell>
                <mxCell id="BKyhv98KqYZoipyMG5w0-15" value="" style="line;strokeWidth=1;fillColor=none;align=left;verticalAlign=middle;spacingTop=-1;spacingLeft=3;spacingRight=3;rotatable=0;labelPosition=right;points=[];portConstraint=eastwest;strokeColor=inherit;fontFamily=Helvetica;fontSize=11;fontColor=#1A1A1A;" vertex="1" parent="BKyhv98KqYZoipyMG5w0-13">
                    <mxGeometry y="52" width="160" height="8" as="geometry"/>
                </mxCell>
                <mxCell id="BKyhv98KqYZoipyMG5w0-16" value="get_backends()" style="text;strokeColor=none;fillColor=none;align=left;verticalAlign=top;spacingLeft=4;spacingRight=4;overflow=hidden;rotatable=0;points=[[0,0.5],[1,0.5]];portConstraint=eastwest;whiteSpace=wrap;html=1;fontSize=11;fontFamily=Helvetica;fontColor=#1A1A1A;" vertex="1" parent="BKyhv98KqYZoipyMG5w0-13">
                    <mxGeometry y="60" width="160" height="26" as="geometry"/>
                </mxCell>
                <mxCell id="BKyhv98KqYZoipyMG5w0-17" value="AbstractBackend&lt;br&gt;" style="swimlane;fontStyle=1;align=center;verticalAlign=top;childLayout=stackLayout;horizontal=1;startSize=26;horizontalStack=0;resizeParent=1;resizeParentMax=0;resizeLast=0;collapsible=1;marginBottom=0;whiteSpace=wrap;html=1;strokeColor=#36393d;fontFamily=Helvetica;fontSize=11;fillColor=#eeeeee;" vertex="1" parent="1">
                    <mxGeometry x="840" y="680" width="160" height="86" as="geometry"/>
                </mxCell>
                <mxCell id="BKyhv98KqYZoipyMG5w0-18" value="+ field: type" style="text;strokeColor=none;fillColor=none;align=left;verticalAlign=top;spacingLeft=4;spacingRight=4;overflow=hidden;rotatable=0;points=[[0,0.5],[1,0.5]];portConstraint=eastwest;whiteSpace=wrap;html=1;fontSize=11;fontFamily=Helvetica;fontColor=#1A1A1A;" vertex="1" parent="BKyhv98KqYZoipyMG5w0-17">
                    <mxGeometry y="26" width="160" height="26" as="geometry"/>
                </mxCell>
                <mxCell id="BKyhv98KqYZoipyMG5w0-19" value="" style="line;strokeWidth=1;fillColor=none;align=left;verticalAlign=middle;spacingTop=-1;spacingLeft=3;spacingRight=3;rotatable=0;labelPosition=right;points=[];portConstraint=eastwest;strokeColor=inherit;fontFamily=Helvetica;fontSize=11;fontColor=#1A1A1A;" vertex="1" parent="BKyhv98KqYZoipyMG5w0-17">
                    <mxGeometry y="52" width="160" height="8" as="geometry"/>
                </mxCell>
                <mxCell id="BKyhv98KqYZoipyMG5w0-20" value="+ method(type): type" style="text;strokeColor=none;fillColor=none;align=left;verticalAlign=top;spacingLeft=4;spacingRight=4;overflow=hidden;rotatable=0;points=[[0,0.5],[1,0.5]];portConstraint=eastwest;whiteSpace=wrap;html=1;fontSize=11;fontFamily=Helvetica;fontColor=#1A1A1A;" vertex="1" parent="BKyhv98KqYZoipyMG5w0-17">
                    <mxGeometry y="60" width="160" height="26" as="geometry"/>
                </mxCell>
                <mxCell id="BKyhv98KqYZoipyMG5w0-21" value="has" style="shape=connector;rounded=1;orthogonalLoop=1;jettySize=auto;html=1;labelBackgroundColor=default;strokeColor=#182E3E;fontFamily=Helvetica;fontSize=11;fontColor=#1A1A1A;startArrow=none;startFill=0;endArrow=ERmany;endFill=0;entryX=0;entryY=0.5;entryDx=0;entryDy=0;exitX=1;exitY=0.5;exitDx=0;exitDy=0;edgeStyle=orthogonalEdgeStyle;" edge="1" parent="1" source="BKyhv98KqYZoipyMG5w0-14" target="BKyhv98KqYZoipyMG5w0-18">
                    <mxGeometry relative="1" as="geometry">
                        <mxPoint x="680" y="510" as="sourcePoint"/>
                        <mxPoint x="740" y="780" as="targetPoint"/>
                    </mxGeometry>
                </mxCell>
                <mxCell id="BKyhv98KqYZoipyMG5w0-22" style="edgeStyle=orthogonalEdgeStyle;shape=connector;rounded=1;orthogonalLoop=1;jettySize=auto;html=1;entryX=0.5;entryY=0;entryDx=0;entryDy=0;labelBackgroundColor=default;strokeColor=#182E3E;fontFamily=Helvetica;fontSize=11;fontColor=#1A1A1A;startArrow=none;startFill=0;endArrow=classic;" edge="1" parent="1" source="BKyhv98KqYZoipyMG5w0-23" target="BKyhv98KqYZoipyMG5w0-4">
                    <mxGeometry relative="1" as="geometry"/>
                </mxCell>
                <mxCell id="BKyhv98KqYZoipyMG5w0-23" value="BaseSSM" style="swimlane;fontStyle=1;align=center;verticalAlign=top;childLayout=stackLayout;horizontal=1;startSize=26;horizontalStack=0;resizeParent=1;resizeParentMax=0;resizeLast=0;collapsible=1;marginBottom=0;whiteSpace=wrap;html=1;strokeColor=#36393d;fontFamily=Helvetica;fontSize=11;fillColor=#cdeb8b;" vertex="1" parent="1">
                    <mxGeometry x="80" y="260" width="160" height="60" as="geometry"/>
                </mxCell>
                <mxCell id="BKyhv98KqYZoipyMG5w0-24" value="+ field: type" style="text;strokeColor=none;fillColor=none;align=left;verticalAlign=top;spacingLeft=4;spacingRight=4;overflow=hidden;rotatable=0;points=[[0,0.5],[1,0.5]];portConstraint=eastwest;whiteSpace=wrap;html=1;fontSize=11;fontFamily=Helvetica;fontColor=#1A1A1A;" vertex="1" parent="BKyhv98KqYZoipyMG5w0-23">
                    <mxGeometry y="26" width="160" height="26" as="geometry"/>
                </mxCell>
                <mxCell id="BKyhv98KqYZoipyMG5w0-25" value="" style="line;strokeWidth=1;fillColor=none;align=left;verticalAlign=middle;spacingTop=-1;spacingLeft=3;spacingRight=3;rotatable=0;labelPosition=right;points=[];portConstraint=eastwest;strokeColor=inherit;fontFamily=Helvetica;fontSize=11;fontColor=#1A1A1A;" vertex="1" parent="BKyhv98KqYZoipyMG5w0-23">
                    <mxGeometry y="52" width="160" height="8" as="geometry"/>
                </mxCell>
                <mxCell id="BKyhv98KqYZoipyMG5w0-26" style="edgeStyle=orthogonalEdgeStyle;shape=connector;rounded=1;orthogonalLoop=1;jettySize=auto;html=1;entryX=0.5;entryY=0;entryDx=0;entryDy=0;labelBackgroundColor=default;strokeColor=#182E3E;fontFamily=Helvetica;fontSize=11;fontColor=#1A1A1A;startArrow=none;startFill=0;endArrow=classic;" edge="1" parent="1" source="BKyhv98KqYZoipyMG5w0-27" target="BKyhv98KqYZoipyMG5w0-9">
                    <mxGeometry relative="1" as="geometry"/>
                </mxCell>
                <mxCell id="BKyhv98KqYZoipyMG5w0-27" value="BaseSLM" style="swimlane;fontStyle=1;align=center;verticalAlign=top;childLayout=stackLayout;horizontal=1;startSize=26;horizontalStack=0;resizeParent=1;resizeParentMax=0;resizeLast=0;collapsible=1;marginBottom=0;whiteSpace=wrap;html=1;strokeColor=#36393d;fontFamily=Helvetica;fontSize=11;fillColor=#cdeb8b;" vertex="1" parent="1">
                    <mxGeometry x="320" y="380" width="160" height="60" as="geometry"/>
                </mxCell>
                <mxCell id="BKyhv98KqYZoipyMG5w0-28" value="+ field: type" style="text;strokeColor=none;fillColor=none;align=left;verticalAlign=top;spacingLeft=4;spacingRight=4;overflow=hidden;rotatable=0;points=[[0,0.5],[1,0.5]];portConstraint=eastwest;whiteSpace=wrap;html=1;fontSize=11;fontFamily=Helvetica;fontColor=#1A1A1A;" vertex="1" parent="BKyhv98KqYZoipyMG5w0-27">
                    <mxGeometry y="26" width="160" height="26" as="geometry"/>
                </mxCell>
                <mxCell id="BKyhv98KqYZoipyMG5w0-29" value="" style="line;strokeWidth=1;fillColor=none;align=left;verticalAlign=middle;spacingTop=-1;spacingLeft=3;spacingRight=3;rotatable=0;labelPosition=right;points=[];portConstraint=eastwest;strokeColor=inherit;fontFamily=Helvetica;fontSize=11;fontColor=#1A1A1A;" vertex="1" parent="BKyhv98KqYZoipyMG5w0-27">
                    <mxGeometry y="52" width="160" height="8" as="geometry"/>
                </mxCell>
                <mxCell id="BKyhv98KqYZoipyMG5w0-30" style="edgeStyle=orthogonalEdgeStyle;shape=connector;rounded=1;orthogonalLoop=1;jettySize=auto;html=1;labelBackgroundColor=default;strokeColor=#182E3E;fontFamily=Helvetica;fontSize=11;fontColor=#1A1A1A;startArrow=none;startFill=0;endArrow=classic;" edge="1" parent="1" source="BKyhv98KqYZoipyMG5w0-31" target="BKyhv98KqYZoipyMG5w0-13">
                    <mxGeometry relative="1" as="geometry"/>
                </mxCell>
                <mxCell id="BKyhv98KqYZoipyMG5w0-31" value="BaseAdapter" style="swimlane;fontStyle=1;align=center;verticalAlign=top;childLayout=stackLayout;horizontal=1;startSize=26;horizontalStack=0;resizeParent=1;resizeParentMax=0;resizeLast=0;collapsible=1;marginBottom=0;whiteSpace=wrap;html=1;strokeColor=#36393d;fontFamily=Helvetica;fontSize=11;fillColor=#cdeb8b;" vertex="1" parent="1">
                    <mxGeometry x="600" y="460" width="160" height="60" as="geometry"/>
                </mxCell>
                <mxCell id="BKyhv98KqYZoipyMG5w0-32" value="+ field: type" style="text;strokeColor=none;fillColor=none;align=left;verticalAlign=top;spacingLeft=4;spacingRight=4;overflow=hidden;rotatable=0;points=[[0,0.5],[1,0.5]];portConstraint=eastwest;whiteSpace=wrap;html=1;fontSize=11;fontFamily=Helvetica;fontColor=#1A1A1A;" vertex="1" parent="BKyhv98KqYZoipyMG5w0-31">
                    <mxGeometry y="26" width="160" height="26" as="geometry"/>
                </mxCell>
                <mxCell id="BKyhv98KqYZoipyMG5w0-33" value="" style="line;strokeWidth=1;fillColor=none;align=left;verticalAlign=middle;spacingTop=-1;spacingLeft=3;spacingRight=3;rotatable=0;labelPosition=right;points=[];portConstraint=eastwest;strokeColor=inherit;fontFamily=Helvetica;fontSize=11;fontColor=#1A1A1A;" vertex="1" parent="BKyhv98KqYZoipyMG5w0-31">
                    <mxGeometry y="52" width="160" height="8" as="geometry"/>
                </mxCell>
                <mxCell id="BKyhv98KqYZoipyMG5w0-34" style="edgeStyle=orthogonalEdgeStyle;shape=connector;rounded=1;orthogonalLoop=1;jettySize=auto;html=1;exitX=0.5;exitY=1;exitDx=0;exitDy=0;entryX=0.5;entryY=0;entryDx=0;entryDy=0;labelBackgroundColor=default;strokeColor=#182E3E;fontFamily=Helvetica;fontSize=11;fontColor=#1A1A1A;startArrow=none;startFill=0;endArrow=classic;" edge="1" parent="1" source="BKyhv98KqYZoipyMG5w0-35" target="BKyhv98KqYZoipyMG5w0-17">
                    <mxGeometry relative="1" as="geometry"/>
                </mxCell>
                <mxCell id="BKyhv98KqYZoipyMG5w0-35" value="BaseBackend" style="swimlane;fontStyle=1;align=center;verticalAlign=top;childLayout=stackLayout;horizontal=1;startSize=26;horizontalStack=0;resizeParent=1;resizeParentMax=0;resizeLast=0;collapsible=1;marginBottom=0;whiteSpace=wrap;html=1;strokeColor=#36393d;fontFamily=Helvetica;fontSize=11;fillColor=#cdeb8b;" vertex="1" parent="1">
                    <mxGeometry x="840" y="560" width="160" height="60" as="geometry"/>
                </mxCell>
                <mxCell id="BKyhv98KqYZoipyMG5w0-36" value="+ field: type" style="text;strokeColor=none;fillColor=none;align=left;verticalAlign=top;spacingLeft=4;spacingRight=4;overflow=hidden;rotatable=0;points=[[0,0.5],[1,0.5]];portConstraint=eastwest;whiteSpace=wrap;html=1;fontSize=11;fontFamily=Helvetica;fontColor=#1A1A1A;" vertex="1" parent="BKyhv98KqYZoipyMG5w0-35">
                    <mxGeometry y="26" width="160" height="26" as="geometry"/>
                </mxCell>
                <mxCell id="BKyhv98KqYZoipyMG5w0-37" value="" style="line;strokeWidth=1;fillColor=none;align=left;verticalAlign=middle;spacingTop=-1;spacingLeft=3;spacingRight=3;rotatable=0;labelPosition=right;points=[];portConstraint=eastwest;strokeColor=inherit;fontFamily=Helvetica;fontSize=11;fontColor=#1A1A1A;" vertex="1" parent="BKyhv98KqYZoipyMG5w0-35">
                    <mxGeometry y="52" width="160" height="8" as="geometry"/>
                </mxCell>
                <mxCell id="BKyhv98KqYZoipyMG5w0-38" style="edgeStyle=orthogonalEdgeStyle;shape=connector;rounded=1;orthogonalLoop=1;jettySize=auto;html=1;entryX=0.5;entryY=0;entryDx=0;entryDy=0;labelBackgroundColor=default;strokeColor=#182E3E;fontFamily=Helvetica;fontSize=11;fontColor=#1A1A1A;startArrow=none;startFill=0;endArrow=classic;" edge="1" parent="1" source="BKyhv98KqYZoipyMG5w0-39" target="BKyhv98KqYZoipyMG5w0-27">
                    <mxGeometry relative="1" as="geometry"/>
                </mxCell>
                <mxCell id="BKyhv98KqYZoipyMG5w0-39" value="GPT3SLM" style="swimlane;fontStyle=1;align=center;verticalAlign=top;childLayout=stackLayout;horizontal=1;startSize=26;horizontalStack=0;resizeParent=1;resizeParentMax=0;resizeLast=0;collapsible=1;marginBottom=0;whiteSpace=wrap;html=1;strokeColor=#36393d;fontFamily=Helvetica;fontSize=11;fillColor=#cce5ff;" vertex="1" parent="1">
                    <mxGeometry x="290" y="280" width="160" height="60" as="geometry"/>
                </mxCell>
                <mxCell id="BKyhv98KqYZoipyMG5w0-40" value="+ field: type" style="text;strokeColor=none;fillColor=none;align=left;verticalAlign=top;spacingLeft=4;spacingRight=4;overflow=hidden;rotatable=0;points=[[0,0.5],[1,0.5]];portConstraint=eastwest;whiteSpace=wrap;html=1;fontSize=11;fontFamily=Helvetica;fontColor=#1A1A1A;" vertex="1" parent="BKyhv98KqYZoipyMG5w0-39">
                    <mxGeometry y="26" width="160" height="26" as="geometry"/>
                </mxCell>
                <mxCell id="BKyhv98KqYZoipyMG5w0-41" value="" style="line;strokeWidth=1;fillColor=none;align=left;verticalAlign=middle;spacingTop=-1;spacingLeft=3;spacingRight=3;rotatable=0;labelPosition=right;points=[];portConstraint=eastwest;strokeColor=inherit;fontFamily=Helvetica;fontSize=11;fontColor=#1A1A1A;" vertex="1" parent="BKyhv98KqYZoipyMG5w0-39">
                    <mxGeometry y="52" width="160" height="8" as="geometry"/>
                </mxCell>
                <mxCell id="BKyhv98KqYZoipyMG5w0-42" style="edgeStyle=orthogonalEdgeStyle;shape=connector;rounded=1;orthogonalLoop=1;jettySize=auto;html=1;exitX=0.75;exitY=1;exitDx=0;exitDy=0;entryX=0.5;entryY=0;entryDx=0;entryDy=0;labelBackgroundColor=default;strokeColor=#182E3E;fontFamily=Helvetica;fontSize=11;fontColor=#1A1A1A;startArrow=none;startFill=0;endArrow=classic;" edge="1" parent="1" source="BKyhv98KqYZoipyMG5w0-43" target="BKyhv98KqYZoipyMG5w0-67">
                    <mxGeometry relative="1" as="geometry">
                        <mxPoint x="545" y="270" as="targetPoint"/>
                        <Array as="points">
                            <mxPoint x="560" y="180"/>
                        </Array>
                    </mxGeometry>
                </mxCell>
                <mxCell id="BKyhv98KqYZoipyMG5w0-43" value="Falcon7SLM" style="swimlane;fontStyle=1;align=center;verticalAlign=top;childLayout=stackLayout;horizontal=1;startSize=26;horizontalStack=0;resizeParent=1;resizeParentMax=0;resizeLast=0;collapsible=1;marginBottom=0;whiteSpace=wrap;html=1;strokeColor=#36393d;fontFamily=Helvetica;fontSize=11;fillColor=#cce5ff;" vertex="1" parent="1">
                    <mxGeometry x="480" y="120" width="160" height="60" as="geometry"/>
                </mxCell>
                <mxCell id="BKyhv98KqYZoipyMG5w0-44" value="+ field: type" style="text;strokeColor=none;fillColor=none;align=left;verticalAlign=top;spacingLeft=4;spacingRight=4;overflow=hidden;rotatable=0;points=[[0,0.5],[1,0.5]];portConstraint=eastwest;whiteSpace=wrap;html=1;fontSize=11;fontFamily=Helvetica;fontColor=#1A1A1A;" vertex="1" parent="BKyhv98KqYZoipyMG5w0-43">
                    <mxGeometry y="26" width="160" height="26" as="geometry"/>
                </mxCell>
                <mxCell id="BKyhv98KqYZoipyMG5w0-45" value="" style="line;strokeWidth=1;fillColor=none;align=left;verticalAlign=middle;spacingTop=-1;spacingLeft=3;spacingRight=3;rotatable=0;labelPosition=right;points=[];portConstraint=eastwest;strokeColor=inherit;fontFamily=Helvetica;fontSize=11;fontColor=#1A1A1A;" vertex="1" parent="BKyhv98KqYZoipyMG5w0-43">
                    <mxGeometry y="52" width="160" height="8" as="geometry"/>
                </mxCell>
                <mxCell id="BKyhv98KqYZoipyMG5w0-46" style="edgeStyle=orthogonalEdgeStyle;shape=connector;rounded=1;orthogonalLoop=1;jettySize=auto;html=1;entryX=0.5;entryY=0;entryDx=0;entryDy=0;labelBackgroundColor=default;strokeColor=#182E3E;fontFamily=Helvetica;fontSize=11;fontColor=#1A1A1A;startArrow=none;startFill=0;endArrow=classic;" edge="1" parent="1" source="BKyhv98KqYZoipyMG5w0-47" target="BKyhv98KqYZoipyMG5w0-31">
                    <mxGeometry relative="1" as="geometry"/>
                </mxCell>
                <mxCell id="BKyhv98KqYZoipyMG5w0-47" value="LlamaIndexAdapter" style="swimlane;fontStyle=1;align=center;verticalAlign=top;childLayout=stackLayout;horizontal=1;startSize=26;horizontalStack=0;resizeParent=1;resizeParentMax=0;resizeLast=0;collapsible=1;marginBottom=0;whiteSpace=wrap;html=1;strokeColor=#36393d;fontFamily=Helvetica;fontSize=11;fillColor=#cce5ff;" vertex="1" parent="1">
                    <mxGeometry x="600" y="360" width="160" height="60" as="geometry"/>
                </mxCell>
                <mxCell id="BKyhv98KqYZoipyMG5w0-48" value="+ field: type" style="text;strokeColor=none;fillColor=none;align=left;verticalAlign=top;spacingLeft=4;spacingRight=4;overflow=hidden;rotatable=0;points=[[0,0.5],[1,0.5]];portConstraint=eastwest;whiteSpace=wrap;html=1;fontSize=11;fontFamily=Helvetica;fontColor=#1A1A1A;" vertex="1" parent="BKyhv98KqYZoipyMG5w0-47">
                    <mxGeometry y="26" width="160" height="26" as="geometry"/>
                </mxCell>
                <mxCell id="BKyhv98KqYZoipyMG5w0-49" value="" style="line;strokeWidth=1;fillColor=none;align=left;verticalAlign=middle;spacingTop=-1;spacingLeft=3;spacingRight=3;rotatable=0;labelPosition=right;points=[];portConstraint=eastwest;strokeColor=inherit;fontFamily=Helvetica;fontSize=11;fontColor=#1A1A1A;" vertex="1" parent="BKyhv98KqYZoipyMG5w0-47">
                    <mxGeometry y="52" width="160" height="8" as="geometry"/>
                </mxCell>
                <mxCell id="BKyhv98KqYZoipyMG5w0-50" style="edgeStyle=orthogonalEdgeStyle;shape=connector;rounded=1;orthogonalLoop=1;jettySize=auto;html=1;exitX=0.5;exitY=1;exitDx=0;exitDy=0;entryX=0.5;entryY=0;entryDx=0;entryDy=0;labelBackgroundColor=default;strokeColor=#182E3E;fontFamily=Helvetica;fontSize=11;fontColor=#1A1A1A;startArrow=none;startFill=0;endArrow=classic;" edge="1" parent="1" source="BKyhv98KqYZoipyMG5w0-51" target="BKyhv98KqYZoipyMG5w0-35">
                    <mxGeometry relative="1" as="geometry"/>
                </mxCell>
                <mxCell id="BKyhv98KqYZoipyMG5w0-51" value="LlamaIndexBackend" style="swimlane;fontStyle=1;align=center;verticalAlign=top;childLayout=stackLayout;horizontal=1;startSize=26;horizontalStack=0;resizeParent=1;resizeParentMax=0;resizeLast=0;collapsible=1;marginBottom=0;whiteSpace=wrap;html=1;strokeColor=#36393d;fontFamily=Helvetica;fontSize=11;fillColor=#cce5ff;" vertex="1" parent="1">
                    <mxGeometry x="840" y="460" width="160" height="60" as="geometry"/>
                </mxCell>
                <mxCell id="BKyhv98KqYZoipyMG5w0-52" value="+ field: type" style="text;strokeColor=none;fillColor=none;align=left;verticalAlign=top;spacingLeft=4;spacingRight=4;overflow=hidden;rotatable=0;points=[[0,0.5],[1,0.5]];portConstraint=eastwest;whiteSpace=wrap;html=1;fontSize=11;fontFamily=Helvetica;fontColor=#1A1A1A;" vertex="1" parent="BKyhv98KqYZoipyMG5w0-51">
                    <mxGeometry y="26" width="160" height="26" as="geometry"/>
                </mxCell>
                <mxCell id="BKyhv98KqYZoipyMG5w0-53" value="" style="line;strokeWidth=1;fillColor=none;align=left;verticalAlign=middle;spacingTop=-1;spacingLeft=3;spacingRight=3;rotatable=0;labelPosition=right;points=[];portConstraint=eastwest;strokeColor=inherit;fontFamily=Helvetica;fontSize=11;fontColor=#1A1A1A;" vertex="1" parent="BKyhv98KqYZoipyMG5w0-51">
                    <mxGeometry y="52" width="160" height="8" as="geometry"/>
                </mxCell>
                <mxCell id="BKyhv98KqYZoipyMG5w0-54" style="edgeStyle=orthogonalEdgeStyle;shape=connector;rounded=1;orthogonalLoop=1;jettySize=auto;html=1;labelBackgroundColor=default;strokeColor=#182E3E;fontFamily=Helvetica;fontSize=11;fontColor=#1A1A1A;startArrow=none;startFill=0;endArrow=classic;" edge="1" parent="1" source="BKyhv98KqYZoipyMG5w0-55" target="BKyhv98KqYZoipyMG5w0-23">
                    <mxGeometry relative="1" as="geometry"/>
                </mxCell>
                <mxCell id="BKyhv98KqYZoipyMG5w0-55" value="GPT3SSM" style="swimlane;fontStyle=1;align=center;verticalAlign=top;childLayout=stackLayout;horizontal=1;startSize=26;horizontalStack=0;resizeParent=1;resizeParentMax=0;resizeLast=0;collapsible=1;marginBottom=0;whiteSpace=wrap;html=1;strokeColor=#36393d;fontFamily=Helvetica;fontSize=11;fillColor=#ffcc99;" vertex="1" parent="1">
                    <mxGeometry x="80" y="160" width="160" height="60" as="geometry"/>
                </mxCell>
                <mxCell id="BKyhv98KqYZoipyMG5w0-56" value="+ field: type" style="text;strokeColor=none;fillColor=none;align=left;verticalAlign=top;spacingLeft=4;spacingRight=4;overflow=hidden;rotatable=0;points=[[0,0.5],[1,0.5]];portConstraint=eastwest;whiteSpace=wrap;html=1;fontSize=11;fontFamily=Helvetica;fontColor=#1A1A1A;" vertex="1" parent="BKyhv98KqYZoipyMG5w0-55">
                    <mxGeometry y="26" width="160" height="26" as="geometry"/>
                </mxCell>
                <mxCell id="BKyhv98KqYZoipyMG5w0-57" value="" style="line;strokeWidth=1;fillColor=none;align=left;verticalAlign=middle;spacingTop=-1;spacingLeft=3;spacingRight=3;rotatable=0;labelPosition=right;points=[];portConstraint=eastwest;strokeColor=inherit;fontFamily=Helvetica;fontSize=11;fontColor=#1A1A1A;" vertex="1" parent="BKyhv98KqYZoipyMG5w0-55">
                    <mxGeometry y="52" width="160" height="8" as="geometry"/>
                </mxCell>
                <mxCell id="BKyhv98KqYZoipyMG5w0-58" style="edgeStyle=orthogonalEdgeStyle;shape=connector;rounded=1;orthogonalLoop=1;jettySize=auto;html=1;exitX=0.75;exitY=1;exitDx=0;exitDy=0;entryX=0.75;entryY=0;entryDx=0;entryDy=0;labelBackgroundColor=default;strokeColor=#182E3E;fontFamily=Helvetica;fontSize=11;fontColor=#1A1A1A;startArrow=none;startFill=0;endArrow=classic;" edge="1" parent="1" source="BKyhv98KqYZoipyMG5w0-59" target="BKyhv98KqYZoipyMG5w0-23">
                    <mxGeometry relative="1" as="geometry"/>
                </mxCell>
                <mxCell id="BKyhv98KqYZoipyMG5w0-59" value="Falcon7SSM" style="swimlane;fontStyle=1;align=center;verticalAlign=top;childLayout=stackLayout;horizontal=1;startSize=26;horizontalStack=0;resizeParent=1;resizeParentMax=0;resizeLast=0;collapsible=1;marginBottom=0;whiteSpace=wrap;html=1;strokeColor=#36393d;fontFamily=Helvetica;fontSize=11;fillColor=#ffcc99;" vertex="1" parent="1">
                    <mxGeometry x="80" y="80" width="160" height="60" as="geometry"/>
                </mxCell>
                <mxCell id="BKyhv98KqYZoipyMG5w0-60" value="+ field: type" style="text;strokeColor=none;fillColor=none;align=left;verticalAlign=top;spacingLeft=4;spacingRight=4;overflow=hidden;rotatable=0;points=[[0,0.5],[1,0.5]];portConstraint=eastwest;whiteSpace=wrap;html=1;fontSize=11;fontFamily=Helvetica;fontColor=#1A1A1A;" vertex="1" parent="BKyhv98KqYZoipyMG5w0-59">
                    <mxGeometry y="26" width="160" height="26" as="geometry"/>
                </mxCell>
                <mxCell id="BKyhv98KqYZoipyMG5w0-61" value="" style="line;strokeWidth=1;fillColor=none;align=left;verticalAlign=middle;spacingTop=-1;spacingLeft=3;spacingRight=3;rotatable=0;labelPosition=right;points=[];portConstraint=eastwest;strokeColor=inherit;fontFamily=Helvetica;fontSize=11;fontColor=#1A1A1A;" vertex="1" parent="BKyhv98KqYZoipyMG5w0-59">
                    <mxGeometry y="52" width="160" height="8" as="geometry"/>
                </mxCell>
                <mxCell id="BKyhv98KqYZoipyMG5w0-62" value="ConversationMemory" style="swimlane;fontStyle=1;align=center;verticalAlign=top;childLayout=stackLayout;horizontal=1;startSize=26;horizontalStack=0;resizeParent=1;resizeParentMax=0;resizeLast=0;collapsible=1;marginBottom=0;whiteSpace=wrap;html=1;strokeColor=#36393d;fontFamily=Helvetica;fontSize=11;fillColor=#ffff88;" vertex="1" parent="1">
                    <mxGeometry x="80" y="560" width="160" height="86" as="geometry"/>
                </mxCell>
                <mxCell id="BKyhv98KqYZoipyMG5w0-63" value="+ field: type" style="text;strokeColor=none;fillColor=none;align=left;verticalAlign=top;spacingLeft=4;spacingRight=4;overflow=hidden;rotatable=0;points=[[0,0.5],[1,0.5]];portConstraint=eastwest;whiteSpace=wrap;html=1;fontSize=11;fontFamily=Helvetica;fontColor=#1A1A1A;" vertex="1" parent="BKyhv98KqYZoipyMG5w0-62">
                    <mxGeometry y="26" width="160" height="26" as="geometry"/>
                </mxCell>
                <mxCell id="BKyhv98KqYZoipyMG5w0-64" value="" style="line;strokeWidth=1;fillColor=none;align=left;verticalAlign=middle;spacingTop=-1;spacingLeft=3;spacingRight=3;rotatable=0;labelPosition=right;points=[];portConstraint=eastwest;strokeColor=inherit;fontFamily=Helvetica;fontSize=11;fontColor=#1A1A1A;" vertex="1" parent="BKyhv98KqYZoipyMG5w0-62">
                    <mxGeometry y="52" width="160" height="8" as="geometry"/>
                </mxCell>
                <mxCell id="BKyhv98KqYZoipyMG5w0-65" value="+ method(type): type" style="text;strokeColor=none;fillColor=none;align=left;verticalAlign=top;spacingLeft=4;spacingRight=4;overflow=hidden;rotatable=0;points=[[0,0.5],[1,0.5]];portConstraint=eastwest;whiteSpace=wrap;html=1;fontSize=11;fontFamily=Helvetica;fontColor=#1A1A1A;" vertex="1" parent="BKyhv98KqYZoipyMG5w0-62">
                    <mxGeometry y="60" width="160" height="26" as="geometry"/>
                </mxCell>
                <mxCell id="BKyhv98KqYZoipyMG5w0-66" value="OpenSSM High-Level Class Diagram&lt;br&gt;&lt;font style=&quot;font-size: 14px;&quot;&gt;SSM = SLM → Adapter → Backends&lt;/font&gt;" style="rounded=0;whiteSpace=wrap;html=1;fontFamily=Helvetica;fontSize=20;shadow=1;glass=1;" vertex="1" parent="1">
                    <mxGeometry x="680" y="70" width="410" height="60" as="geometry"/>
                </mxCell>
                <mxCell id="BKyhv98KqYZoipyMG5w0-67" value="HuggingFaceSLM" style="swimlane;fontStyle=1;align=center;verticalAlign=top;childLayout=stackLayout;horizontal=1;startSize=26;horizontalStack=0;resizeParent=1;resizeParentMax=0;resizeLast=0;collapsible=1;marginBottom=0;whiteSpace=wrap;html=1;strokeColor=#36393d;fontFamily=Helvetica;fontSize=11;fillColor=#cce5ff;" vertex="1" parent="1">
                    <mxGeometry x="480" y="280" width="160" height="60" as="geometry"/>
                </mxCell>
                <mxCell id="BKyhv98KqYZoipyMG5w0-68" value="+ field: type" style="text;strokeColor=none;fillColor=none;align=left;verticalAlign=top;spacingLeft=4;spacingRight=4;overflow=hidden;rotatable=0;points=[[0,0.5],[1,0.5]];portConstraint=eastwest;whiteSpace=wrap;html=1;fontSize=11;fontFamily=Helvetica;fontColor=#1A1A1A;" vertex="1" parent="BKyhv98KqYZoipyMG5w0-67">
                    <mxGeometry y="26" width="160" height="26" as="geometry"/>
                </mxCell>
                <mxCell id="BKyhv98KqYZoipyMG5w0-69" value="" style="line;strokeWidth=1;fillColor=none;align=left;verticalAlign=middle;spacingTop=-1;spacingLeft=3;spacingRight=3;rotatable=0;labelPosition=right;points=[];portConstraint=eastwest;strokeColor=inherit;fontFamily=Helvetica;fontSize=11;fontColor=#1A1A1A;" vertex="1" parent="BKyhv98KqYZoipyMG5w0-67">
                    <mxGeometry y="52" width="160" height="8" as="geometry"/>
                </mxCell>
                <mxCell id="BKyhv98KqYZoipyMG5w0-70" style="edgeStyle=orthogonalEdgeStyle;shape=connector;rounded=1;orthogonalLoop=1;jettySize=auto;html=1;entryX=0.75;entryY=0;entryDx=0;entryDy=0;labelBackgroundColor=default;strokeColor=#182E3E;fontFamily=Helvetica;fontSize=11;fontColor=#1A1A1A;startArrow=none;startFill=0;endArrow=classic;exitX=0.5;exitY=1;exitDx=0;exitDy=0;" edge="1" parent="1" source="BKyhv98KqYZoipyMG5w0-67" target="BKyhv98KqYZoipyMG5w0-27">
                    <mxGeometry relative="1" as="geometry">
                        <mxPoint x="500" y="380" as="sourcePoint"/>
                        <mxPoint x="530" y="420" as="targetPoint"/>
                    </mxGeometry>
                </mxCell>
            </root>
        </mxGraphModel>
    </diagram>
</mxfile>